<svg xmlns="http://www.w3.org/2000/svg" xmlns:xlink="http://www.w3.org/1999/xlink" width="500" zoomAndPan="magnify" viewBox="0 0 375 374.999991" height="500" preserveAspectRatio="xMidYMid meet" version="1.0"><defs><g/><clipPath id="5433977dbe"><path d="M 127 174 L 372 174 L 372 253 L 127 253 Z M 127 174 " clip-rule="nonzero"/></clipPath><clipPath id="8b2e4d4296"><path d="M 86.269531 272.519531 L 83.664062 170.554688 L 372.316406 163.175781 L 374.925781 265.140625 Z M 86.269531 272.519531 " clip-rule="nonzero"/></clipPath><clipPath id="56cd97c10c"><path d="M 374.996094 265.140625 L 372.386719 163.171875 L 83.734375 170.550781 L 86.339844 272.519531 Z M 374.996094 265.140625 " clip-rule="nonzero"/></clipPath><clipPath id="68800174e5"><path d="M 86 203 L 354 203 L 354 273 L 86 273 Z M 86 203 " clip-rule="nonzero"/></clipPath><clipPath id="1c106b56cc"><path d="M 86.269531 272.519531 L 83.664062 170.554688 L 372.316406 163.175781 L 374.925781 265.140625 Z M 86.269531 272.519531 " clip-rule="nonzero"/></clipPath><clipPath id="37593bd985"><path d="M 374.996094 265.140625 L 372.386719 163.171875 L 83.734375 170.550781 L 86.339844 272.519531 Z M 374.996094 265.140625 " clip-rule="nonzero"/></clipPath><clipPath id="64cc63e7ef"><path d="M 83.664062 259.523438 L 233.664062 259.523438 L 233.664062 321.773438 L 83.664062 321.773438 Z M 83.664062 259.523438 " clip-rule="nonzero"/></clipPath></defs><g fill="#4b4946" fill-opacity="1"><g transform="translate(32.4201, 326.139256)"><g><path d="M 44.363281 -38.027344 L 38.449219 -24.082031 C 34.644531 -14.367188 22.816406 -5.914062 13.097656 -5.914062 C 11.40625 -5.914062 10.140625 -4.648438 10.140625 -2.957031 C 10.140625 -1.265625 11.40625 0.421875 13.097656 0.421875 L 53.234375 0.421875 C 54.925781 0.421875 56.195312 -1.265625 56.195312 -2.957031 C 56.195312 -4.648438 54.925781 -5.914062 53.234375 -5.914062 C 49.011719 -5.914062 46.054688 -7.183594 44.363281 -9.71875 C 42.25 -12.675781 42.25 -17.324219 44.363281 -21.546875 L 49.855469 -35.492188 C 72.25 -82.8125 118.300781 -114.078125 170.269531 -117.035156 L 209.988281 -21.546875 C 212.097656 -17.324219 212.097656 -12.675781 209.988281 -9.71875 C 208.296875 -7.183594 205.339844 -5.914062 201.113281 -5.914062 C 199.425781 -5.914062 198.15625 -4.648438 198.15625 -2.957031 C 198.15625 -1.265625 199.425781 0.421875 201.113281 0.421875 L 295.757812 0.421875 C 297.445312 0.421875 299.136719 -1.265625 299.136719 -2.957031 C 299.136719 -4.648438 297.445312 -5.914062 295.757812 -5.914062 C 286.039062 -5.914062 274.207031 -14.367188 270.40625 -24.082031 L 157.597656 -292.796875 L 157.171875 -293.644531 C 157.171875 -294.066406 156.75 -294.488281 156.75 -294.488281 C 156.75 -294.488281 156.75 -294.488281 156.328125 -294.488281 C 156.328125 -294.910156 155.90625 -294.910156 155.90625 -295.332031 C 155.90625 -295.332031 155.90625 -295.332031 155.484375 -295.332031 C 155.0625 -295.332031 155.0625 -295.332031 154.636719 -295.332031 C 154.636719 -295.332031 154.636719 -295.757812 154.636719 -295.757812 C 154.214844 -295.757812 153.792969 -295.332031 153.371094 -295.332031 C 153.371094 -295.332031 153.371094 -295.332031 152.949219 -295.332031 C 152.949219 -294.910156 152.527344 -294.910156 152.527344 -294.910156 C 152.527344 -294.910156 152.101562 -294.488281 152.101562 -294.488281 C 152.101562 -294.488281 151.679688 -294.066406 151.679688 -293.644531 L 147.457031 -283.503906 L 124.21875 -228.578125 Z M 127.175781 -219.703125 L 167.734375 -122.949219 C 126.753906 -119.992188 89.570312 -100.558594 64.222656 -69.714844 Z M 127.175781 -219.703125 "/></g></g></g><g clip-path="url(#5433977dbe)"><g clip-path="url(#8b2e4d4296)"><g clip-path="url(#56cd97c10c)"><path fill="#cbbda6" d="M 131.242188 232.117188 C 131.242188 232.117188 137.546875 230.515625 139.179688 229.5 C 139.90625 229.242188 140.589844 229.125 141.445312 228.851562 C 141.976562 228.695312 142.5625 228.539062 143.167969 228.359375 C 143.472656 228.277344 143.753906 228.171875 144.089844 228.097656 C 144.425781 228.011719 144.773438 227.9375 145.132812 227.863281 C 159.140625 224.675781 174.996094 224.476562 189.085938 227.523438 C 203.210938 230.5625 215.902344 238.746094 229.507812 243.660156 C 263.9375 256.117188 307.941406 256.949219 340.058594 236.738281 C 348.390625 231.503906 358.21875 224.171875 364.441406 215.898438 C 367.09375 212.367188 368.910156 209.230469 369.992188 206.910156 C 370.273438 206.367188 370.488281 205.804688 370.675781 205.34375 C 370.859375 204.878906 371.011719 204.492188 371.128906 204.171875 C 371.371094 203.542969 371.496094 203.222656 371.496094 203.222656 C 372.824219 199.726562 371.386719 195.667969 368.28125 194.140625 C 366.367188 193.207031 364.265625 193.449219 362.621094 194.605469 L 361.203125 195.601562 C 361.203125 195.601562 361.042969 195.714844 360.730469 195.941406 C 360.585938 196.042969 360.398438 196.179688 360.175781 196.335938 C 359.957031 196.484375 359.726562 196.664062 359.386719 196.847656 C 358.179688 197.644531 356.25 198.71875 353.574219 199.75 C 345.398438 202.917969 337.023438 203.808594 328.433594 202.804688 C 328.546875 202.859375 328.738281 202.699219 328.859375 202.742188 C 308.621094 197.285156 289.464844 187.855469 269.515625 181.300781 C 226.007812 167.023438 177.789062 175.617188 141.082031 205.226562 C 140.132812 206.058594 139.234375 206.878906 138.390625 207.652344 C 137.546875 208.40625 136.742188 209.289062 135.996094 210.03125 C 135.621094 210.410156 135.261719 210.792969 134.910156 211.152344 C 134.570312 211.519531 134.230469 211.921875 133.914062 212.300781 C 133.277344 213.058594 132.683594 213.761719 132.140625 214.421875 C 130.957031 215.96875 129.902344 217.40625 129.273438 218.449219 C 128.382812 220.304688 127.90625 221.289062 127.90625 221.289062 C 126.234375 224.785156 127.398438 229.167969 130.515625 231.074219 C 132.488281 232.28125 129.347656 233.257812 131.175781 232.152344 L 131.242188 232.117188 " fill-opacity="1" fill-rule="nonzero"/></g></g></g><g clip-path="url(#68800174e5)"><g clip-path="url(#1c106b56cc)"><g clip-path="url(#37593bd985)"><path fill="#4b4946" d="M 86.65625 268.9375 C 86.683594 269.945312 87.1875 270.925781 88.101562 271.511719 C 89.566406 272.457031 91.519531 272.035156 92.464844 270.570312 C 98.476562 261.253906 107.816406 251.066406 119.5 241.078125 C 140.46875 223.152344 170.789062 212.867188 212.199219 209.644531 C 227.339844 208.460938 241.949219 212.476562 258.109375 217.449219 L 261.65625 218.546875 C 291.300781 227.730469 324.914062 238.121094 352.15625 215 C 353.488281 213.875 353.652344 211.882812 352.523438 210.546875 C 351.394531 209.21875 349.402344 209.054688 348.066406 210.191406 C 323.464844 231.058594 291.617188 221.203125 263.519531 212.503906 L 259.964844 211.40625 C 243.175781 206.242188 227.953125 202.066406 211.710938 203.332031 C 168.917969 206.675781 137.417969 217.441406 115.390625 236.277344 C 106.921875 243.507812 95.152344 254.742188 87.15625 267.144531 C 86.800781 267.703125 86.640625 268.316406 86.65625 268.9375 " fill-opacity="1" fill-rule="nonzero"/></g></g></g><g clip-path="url(#64cc63e7ef)"><path fill="#4b4946" d="M 85.488281 315.371094 C 86.746094 312.582031 88.234375 309.714844 89.78125 306.949219 C 95.816406 316.691406 104.132812 320.691406 119.050781 320.691406 C 132.898438 320.691406 144.585938 315.433594 152.046875 311.367188 C 159.335938 315.601562 167.738281 318.074219 175.363281 317.632812 C 189.566406 316.835938 197.90625 306.59375 201.550781 300.703125 C 201.96875 306.527344 202.808594 310.992188 202.910156 311.535156 C 203.476562 314.71875 208.253906 315.035156 208.085938 311.808594 C 208.066406 311.242188 208.023438 310.53125 207.960938 309.671875 C 208.839844 296.953125 214.097656 290.0625 216.109375 290.0625 C 217.410156 290.0625 218.039062 294.839844 218.039062 297.917969 C 218.039062 299.257812 217.996094 300.496094 217.933594 301.648438 C 211.792969 306.066406 207.960938 312.4375 207.960938 316.835938 C 207.960938 320.941406 210.179688 321.757812 211.773438 321.757812 C 218.664062 321.757812 224.070312 309.921875 224.21875 299.992188 C 227.402344 298.421875 230.648438 297.519531 233.226562 297.519531 C 233.601562 297.519531 233.664062 296.621094 232.996094 296.621094 C 229.851562 296.621094 226.898438 297.226562 224.195312 298.273438 C 223.925781 292.03125 221.703125 286.855469 217.660156 286.855469 C 212.882812 286.855469 209.40625 293.476562 207.5625 300.496094 C 207.5625 298.632812 207.625 296.828125 207.75 295.089844 C 210.578125 291.613281 222.269531 276.152344 222.269531 265.152344 C 222.269531 261.84375 220.53125 259.539062 217.785156 259.539062 C 212.253906 259.539062 201.296875 272.632812 201.296875 294.355469 C 201.296875 295.34375 201.320312 296.328125 201.359375 297.269531 C 201.320312 297.332031 201.296875 297.375 201.257812 297.414062 C 195.601562 307.242188 185.710938 315.621094 175.238281 315.621094 C 167.652344 315.621094 160.46875 313.421875 154.390625 309.964844 C 165.117188 303.300781 171.613281 293.289062 171.195312 283.695312 C 170.964844 278.394531 168.386719 274.582031 164.195312 274.390625 C 162.9375 274.328125 161.535156 274.601562 160.027344 275.273438 C 156.507812 276.824219 153.660156 280.867188 152.066406 284.65625 C 150.371094 280.070312 147.917969 275.585938 142.890625 274.707031 C 136.855469 273.636719 133.066406 278.140625 133.066406 284.71875 C 133.066406 294.316406 140.1875 303.636719 149.742188 309.882812 C 142.742188 313.589844 131.367188 318.15625 120.160156 318.15625 C 106.625 318.15625 95.667969 313.820312 93.617188 300.515625 C 98.183594 293.183594 102.4375 287.464844 102.898438 286.730469 C 103.628906 285.558594 102.414062 283.566406 100.71875 285.328125 C 99.984375 286.082031 96.425781 290.503906 92.695312 296.453125 C 91.753906 292.117188 91 288.15625 90.308594 286.394531 C 90.035156 285.683594 89.34375 283.863281 87.4375 283.863281 C 86.453125 283.863281 85.007812 285.054688 85.007812 286.941406 C 85.007812 291.109375 86.285156 297.835938 88.527344 303.761719 C 86.660156 307.367188 85.027344 311.199219 84 314.929688 C 83.664062 315.933594 84.585938 317.339844 85.488281 315.371094 Z M 212.589844 316.710938 C 212.191406 316.710938 211.960938 316.375 211.960938 315.808594 C 211.960938 311.429688 214.371094 307.492188 217.722656 304.414062 C 216.589844 314.78125 212.925781 316.710938 212.589844 316.710938 Z M 218.625 264.609375 C 219.042969 264.609375 219.085938 265.425781 219.085938 265.84375 C 219.085938 275.691406 211.375 288.175781 207.9375 292.847656 C 209.636719 274.832031 216.949219 264.609375 218.625 264.609375 Z M 136.292969 285.328125 C 136.230469 281.789062 137.464844 279.125 139.582031 278.164062 C 140.480469 277.742188 141.339844 277.578125 142.15625 277.597656 C 147.835938 277.828125 151.1875 287.800781 151.710938 288.050781 C 152.128906 288.238281 152.609375 288.050781 152.800781 287.632812 C 154.015625 285.515625 156.738281 279.671875 161.136719 278.015625 C 162.144531 277.640625 163.042969 277.511719 163.839844 277.578125 C 166.605469 277.808594 167.988281 280.507812 168.09375 284.132812 C 168.34375 292.785156 162.5 302.253906 152.066406 308.582031 C 142.679688 302.464844 136.417969 293.351562 136.292969 285.328125 Z M 136.292969 285.328125 " fill-opacity="1" fill-rule="nonzero"/></g></svg>