<?xml version="1.0"?>
<svg xmlns="http://www.w3.org/2000/svg" xmlns:xlink="http://www.w3.org/1999/xlink" width="500" viewBox="0 0 500 500" height="500" preserveAspectRatio="xMidYMid meet" version="1.2" baseProfile="tiny-ps"><defs><g/><clipPath id="a21e878198"><path d="M 69 69 L 306 69 L 306 306 L 69 306 Z M 69 69 " clip-rule="nonzero"/></clipPath><clipPath id="97ec4dfca6"><path d="M 97.394531 46.242188 L 328.757812 97.398438 L 277.601562 328.757812 L 46.242188 277.605469 Z M 97.394531 46.242188 " clip-rule="nonzero"/></clipPath><clipPath id="46c0222d55"><path d="M 213.074219 71.820312 C 149.1875 57.695312 85.945312 98.035156 71.820312 161.921875 C 57.691406 225.8125 98.035156 289.054688 161.921875 303.179688 C 225.8125 317.308594 289.054688 276.964844 303.179688 213.078125 C 317.304688 149.1875 276.964844 85.945312 213.074219 71.820312 Z M 213.074219 71.820312 " clip-rule="nonzero"/></clipPath><clipPath id="b7cd32a871"><path d="M 76 74 L 299 74 L 299 301 L 76 301 Z M 76 74 " clip-rule="nonzero"/></clipPath><clipPath id="b153964002"><path d="M 302.644531 296.542969 L 80.789062 304.519531 L 72.652344 78.164062 L 294.507812 70.191406 Z M 302.644531 296.542969 " clip-rule="nonzero"/></clipPath><clipPath id="410077128a"><path d="M 302.644531 296.542969 L 80.789062 304.519531 L 72.652344 78.164062 L 294.507812 70.191406 Z M 302.644531 296.542969 " clip-rule="nonzero"/></clipPath><clipPath id="1c45da95bf"><path d="M 82 82 L 293 82 L 293 293 L 82 293 Z M 82 82 " clip-rule="nonzero"/></clipPath><clipPath id="9722e301f2"><path d="M 71.148438 279.058594 L 95.933594 71.140625 L 303.851562 95.925781 L 279.066406 303.84375 Z M 71.148438 279.058594 " clip-rule="nonzero"/></clipPath><clipPath id="cbe9f23448"><path d="M 83.542969 175.097656 C 76.699219 232.511719 117.695312 284.605469 175.109375 291.449219 C 232.523438 298.292969 284.613281 257.296875 291.457031 199.882812 C 298.300781 142.46875 257.308594 90.378906 199.894531 83.535156 C 142.480469 76.691406 90.386719 117.683594 83.542969 175.097656 Z M 83.542969 175.097656 " clip-rule="nonzero"/></clipPath></defs><g clip-path="url(#a21e878198)"><g clip-path="url(#97ec4dfca6)"><g clip-path="url(#46c0222d55)"><path fill="#fdf9f7" d="M 97.394531 46.242188 L 328.757812 97.398438 L 277.601562 328.757812 L 46.242188 277.605469 Z M 97.394531 46.242188 " fill-opacity="1" fill-rule="nonzero"/></g></g></g><g clip-path="url(#b7cd32a871)"><g clip-path="url(#b153964002)"><g clip-path="url(#410077128a)"><path fill="#0b0019" d="M 298.128906 178.902344 C 299.089844 197.867188 295.035156 215.832031 287.089844 232.953125 C 282.824219 242.136719 277.335938 250.566406 270.839844 258.375 C 260.804688 270.445312 248.882812 280.140625 235.023438 287.457031 C 225 292.75 214.398438 296.519531 203.234375 298.445312 C 197.027344 299.515625 190.730469 300.5625 184.386719 300.230469 C 180.105469 300 175.816406 299.925781 171.527344 299.542969 C 159.558594 298.484375 148.339844 295.058594 137.535156 290.046875 C 129.515625 286.324219 122.214844 281.457031 115.363281 275.875 C 110.839844 272.1875 106.804688 268.039062 103 263.640625 C 101.945312 262.421875 101.816406 260.949219 102.785156 260.179688 C 104.015625 259.207031 105.183594 259.5 106.207031 260.59375 C 108.292969 262.820312 110.324219 265.085938 112.515625 267.214844 C 124.800781 279.171875 139.191406 287.441406 155.691406 292.039062 C 162.136719 293.832031 168.679688 294.996094 175.382812 295.425781 C 178.886719 295.648438 182.402344 295.894531 185.890625 295.890625 C 189.617188 295.890625 193.363281 295.363281 197.078125 294.875 C 204.289062 293.921875 211.359375 292.292969 218.21875 289.859375 C 229.867188 285.726562 240.585938 279.914062 250.285156 272.191406 C 255.902344 267.71875 261.175781 262.898438 265.855469 257.46875 C 274.460938 247.480469 281.203125 236.34375 286.023438 224.058594 C 288.90625 216.714844 290.980469 209.164062 292.292969 201.386719 C 292.824219 198.246094 293.082031 195.082031 293.453125 191.929688 C 294.390625 183.96875 294.179688 175.992188 292.996094 168.152344 C 291.335938 157.203125 288.277344 146.578125 283.382812 136.546875 C 279.554688 128.699219 274.910156 121.390625 269.269531 114.738281 C 262.628906 106.90625 254.992188 100.226562 246.28125 94.738281 C 234.96875 87.613281 222.773438 82.898438 209.613281 80.582031 C 200.882812 79.046875 192.082031 78.417969 183.28125 79.265625 C 167.277344 80.808594 152.167969 85.429688 138.222656 93.535156 C 129.152344 98.808594 120.984375 105.210938 113.636719 112.742188 C 103.285156 123.347656 95.433594 135.523438 89.75 149.140625 C 85.617188 159.046875 83.019531 169.390625 81.921875 180.058594 C 81.402344 185.105469 81.125 190.203125 81.34375 195.289062 C 81.863281 207.355469 83.964844 219.121094 88.386719 230.414062 C 88.664062 231.125 88.992188 231.828125 89.164062 232.5625 C 89.394531 233.527344 89.308594 234.617188 88.222656 234.882812 C 87.214844 235.128906 85.929688 235.792969 85.167969 234.234375 C 83.976562 231.800781 83.070312 229.25 82.269531 226.683594 C 80.261719 220.265625 78.589844 213.753906 77.84375 207.046875 C 77.058594 200.011719 76.5 192.921875 76.921875 185.871094 C 78.167969 165.007812 84.359375 145.65625 95.683594 128.023438 C 100.363281 120.746094 105.757812 114.003906 111.9375 107.960938 C 123.253906 96.894531 136.191406 88.242188 150.972656 82.414062 C 158.035156 79.632812 165.292969 77.574219 172.726562 76.160156 C 180.535156 74.671875 188.492188 74.265625 196.378906 74.558594 C 210.386719 75.082031 223.847656 78.367188 236.59375 84.285156 C 244.980469 88.175781 252.734375 93.097656 259.820312 99.066406 C 277.140625 113.652344 288.546875 131.996094 294.527344 153.753906 C 295.660156 157.863281 296.410156 162.089844 297.1875 166.285156 C 297.945312 170.445312 297.941406 174.683594 298.128906 178.902344 Z M 298.128906 178.902344 " fill-opacity="1" fill-rule="nonzero"/></g></g></g><g clip-path="url(#1c45da95bf)"><g clip-path="url(#9722e301f2)"><g clip-path="url(#cbe9f23448)"><path fill="#545454" d="M 71.148438 279.058594 L 95.933594 71.140625 L 303.851562 95.925781 L 279.066406 303.84375 Z M 71.148438 279.058594 " fill-opacity="1" fill-rule="nonzero"/></g></g></g><path stroke-linecap="butt" transform="matrix(0.954749, 0, 0, 0.954749, 103.107221, 129.498023)" fill="none" stroke-linejoin="miter" d="M 94.447919 -10.103664 L 92.529057 -10.901485 L 65.489056 -10.901485 L 56.504362 16.519015 L 47.286458 -10.901485 L 17.202463 -10.901485 L 27.16909 16.703128 L 41.718076 60.403272 L 17.202463 134.187412 L 46.537734 134.187412 L 56.504362 104.29162 L 66.470989 134.187412 L 95.573051 134.187412 L 71.053347 60.403272 Z M 182.216432 88.756609 C 182.216432 75.377762 176.275733 63.070859 166.685513 54.834889 C 171.832482 47.957261 174.917391 39.348975 174.917391 30.131072 C 174.917391 7.346117 156.530681 -11.085598 133.700721 -11.085598 L 132.951997 -11.085598 L 132.951997 -11.273802 L 105.15918 -11.273802 L 105.15918 133.811004 L 140.999762 133.811004 C 163.96883 131.896233 182.216432 112.339385 182.216432 88.756609 Z M 133.136109 16.703128 L 133.700721 16.703128 C 141.183875 16.703128 147.312778 22.647919 147.312778 30.131072 C 147.312778 37.618317 141.183875 43.559016 133.700721 43.559016 L 133.136109 43.559016 Z M 136.973834 106.394595 L 133.136109 106.394595 L 133.136109 71.351833 L 136.973834 71.351833 C 146.564054 71.351833 154.427706 79.211395 154.427706 88.756609 C 154.427706 98.535033 146.564054 106.394595 136.973834 106.394595 Z M 136.973834 106.394595 " stroke="#000000" stroke-width="5.509851" stroke-opacity="1" stroke-miterlimit="4"/><g fill="#fdf9f7" fill-opacity="1"><g transform="translate(82.612463, 218.490745)"><g><path d="M 8.796875 -6.65625 C 8.578125 -5.507812 8.890625 -4.617188 9.734375 -3.984375 C 10.585938 -3.359375 11.914062 -3.046875 13.71875 -3.046875 L 13.71875 0 L 0 0 L 0 -3.046875 C 1.59375 -3.046875 2.769531 -3.316406 3.53125 -3.859375 C 4.300781 -4.410156 4.820312 -5.34375 5.09375 -6.65625 L 17.421875 -62.78125 L 21.359375 -62.78125 L 34.09375 -6.484375 C 34.375 -5.117188 34.851562 -4.203125 35.53125 -3.734375 C 36.21875 -3.273438 37.382812 -3.046875 39.03125 -3.046875 L 39.03125 0 L 19.96875 0 L 19.96875 -3.046875 C 21.9375 -3.046875 23.316406 -3.304688 24.109375 -3.828125 C 24.910156 -4.347656 25.171875 -5.207031 24.890625 -6.40625 L 23.171875 -14.703125 L 10.515625 -14.703125 Z M 11.25 -18 L 22.4375 -18 L 17.015625 -44.203125 Z M 11.25 -18 "/></g></g></g><g fill="#fdf9f7" fill-opacity="1"><g transform="translate(123.530673, 218.490745)"><g><path d="M 2.46875 -3.046875 C 4.21875 -3.046875 5.472656 -3.316406 6.234375 -3.859375 C 7.003906 -4.410156 7.390625 -5.316406 7.390625 -6.578125 L 7.390625 -55.0625 C 7.390625 -56.3125 7.003906 -57.210938 6.234375 -57.765625 C 5.472656 -58.316406 4.21875 -58.59375 2.46875 -58.59375 L 2.46875 -61.625 L 21.53125 -61.625 L 21.53125 -58.59375 C 19.78125 -58.59375 18.519531 -58.316406 17.75 -57.765625 C 16.976562 -57.210938 16.59375 -56.3125 16.59375 -55.0625 L 16.59375 -3.28125 L 22.84375 -3.28125 C 25.3125 -3.28125 27.210938 -3.554688 28.546875 -4.109375 C 29.890625 -4.660156 30.890625 -5.703125 31.546875 -7.234375 C 32.210938 -8.765625 32.707031 -11.035156 33.03125 -14.046875 L 35.90625 -14.046875 L 35.90625 2.546875 L 32.875 2.546875 C 32.65625 1.617188 32.117188 0.960938 31.265625 0.578125 C 30.421875 0.191406 29.066406 0 27.203125 0 L 2.46875 0 Z M 2.46875 -3.046875 "/></g></g></g><g fill="#fdf9f7" fill-opacity="1"><g transform="translate(162.066114, 218.490745)"><g><path d="M 2.46875 -3.046875 C 4.21875 -3.046875 5.472656 -3.316406 6.234375 -3.859375 C 7.003906 -4.410156 7.390625 -5.316406 7.390625 -6.578125 L 7.390625 -55.0625 C 7.390625 -56.3125 7.003906 -57.210938 6.234375 -57.765625 C 5.472656 -58.316406 4.21875 -58.59375 2.46875 -58.59375 L 2.46875 -61.625 L 23.5 -61.625 C 33.800781 -61.625 38.953125 -55.789062 38.953125 -44.125 L 38.953125 -38.953125 C 38.953125 -27.335938 33.800781 -21.53125 23.5 -21.53125 L 19.890625 -21.53125 L 19.890625 -24.8125 L 23.5 -24.8125 C 25.3125 -24.8125 26.765625 -25.550781 27.859375 -27.03125 C 28.953125 -28.507812 29.5 -30.457031 29.5 -32.875 L 29.5 -50.453125 C 29.5 -52.804688 28.9375 -54.707031 27.8125 -56.15625 C 26.6875 -57.613281 25.25 -58.34375 23.5 -58.34375 L 16.59375 -58.34375 L 16.59375 -6.578125 C 16.59375 -5.316406 16.976562 -4.410156 17.75 -3.859375 C 18.519531 -3.316406 19.78125 -3.046875 21.53125 -3.046875 L 21.53125 0 L 2.46875 0 Z M 2.46875 -3.046875 "/></g></g></g><g fill="#fdf9f7" fill-opacity="1"><g transform="translate(204.627612, 218.490745)"><g><path d="M 7.0625 -6.578125 L 7.0625 -55.0625 C 7.0625 -56.3125 6.675781 -57.210938 5.90625 -57.765625 C 5.144531 -58.316406 3.890625 -58.59375 2.140625 -58.59375 L 2.140625 -61.625 L 21.203125 -61.625 L 21.203125 -58.59375 C 19.453125 -58.59375 18.191406 -58.316406 17.421875 -57.765625 C 16.648438 -57.210938 16.265625 -56.3125 16.265625 -55.0625 L 16.265625 -34.09375 L 29.65625 -34.09375 L 29.65625 -55.0625 C 29.65625 -56.3125 29.269531 -57.210938 28.5 -57.765625 C 27.738281 -58.316406 26.484375 -58.59375 24.734375 -58.59375 L 24.734375 -61.625 L 43.640625 -61.625 L 43.640625 -58.59375 C 41.878906 -58.59375 40.613281 -58.316406 39.84375 -57.765625 C 39.082031 -57.210938 38.703125 -56.3125 38.703125 -55.0625 L 38.703125 -6.578125 C 38.703125 -5.316406 39.082031 -4.410156 39.84375 -3.859375 C 40.613281 -3.316406 41.878906 -3.046875 43.640625 -3.046875 L 43.640625 0 L 24.734375 0 L 24.734375 -3.046875 C 26.484375 -3.046875 27.738281 -3.316406 28.5 -3.859375 C 29.269531 -4.410156 29.65625 -5.316406 29.65625 -6.578125 L 29.65625 -30.5625 L 16.265625 -30.5625 L 16.265625 -6.578125 C 16.265625 -5.265625 16.617188 -4.347656 17.328125 -3.828125 C 18.046875 -3.304688 19.335938 -3.046875 21.203125 -3.046875 L 21.203125 0 L 2.140625 0 L 2.140625 -3.046875 C 4.003906 -3.046875 5.289062 -3.304688 6 -3.828125 C 6.707031 -4.347656 7.0625 -5.265625 7.0625 -6.578125 Z M 7.0625 -6.578125 "/></g></g></g><g fill="#fdf9f7" fill-opacity="1"><g transform="translate(251.297345, 218.490745)"><g><path d="M 8.796875 -6.65625 C 8.578125 -5.507812 8.890625 -4.617188 9.734375 -3.984375 C 10.585938 -3.359375 11.914062 -3.046875 13.71875 -3.046875 L 13.71875 0 L 0 0 L 0 -3.046875 C 1.59375 -3.046875 2.769531 -3.316406 3.53125 -3.859375 C 4.300781 -4.410156 4.820312 -5.34375 5.09375 -6.65625 L 17.421875 -62.78125 L 21.359375 -62.78125 L 34.09375 -6.484375 C 34.375 -5.117188 34.851562 -4.203125 35.53125 -3.734375 C 36.21875 -3.273438 37.382812 -3.046875 39.03125 -3.046875 L 39.03125 0 L 19.96875 0 L 19.96875 -3.046875 C 21.9375 -3.046875 23.316406 -3.304688 24.109375 -3.828125 C 24.910156 -4.347656 25.171875 -5.207031 24.890625 -6.40625 L 23.171875 -14.703125 L 10.515625 -14.703125 Z M 11.25 -18 L 22.4375 -18 L 17.015625 -44.203125 Z M 11.25 -18 "/></g></g></g><title>Title</title></svg>
