<svg xmlns="http://www.w3.org/2000/svg" version="1.1" xmlns:xlink="http://www.w3.org/1999/xlink" xmlns:svgjs="http://svgjs.dev/svgjs" width="2000" height="2242" viewBox="0 0 2000 2242"><g transform="matrix(1,0,0,1,-3.1151183800621993,0)"><svg viewBox="0 0 321 360" data-background-color="#f9f6ed" preserveAspectRatio="xMidYMid meet" height="2242" width="2000" xmlns="http://www.w3.org/2000/svg" xmlns:xlink="http://www.w3.org/1999/xlink"><g id="tight-bounds" transform="matrix(1,0,0,1,0.5000234999999975,0)"><svg viewBox="0 0 320 360" height="360" width="320"><g><svg></svg></g><g><svg viewBox="0 0 320 360" height="360" width="320"><g><path transform="translate(-74.99272,-51.79039) scale(4.65793,4.65793)" d="M20.6 59.9l0.8 1-0.4-1.3c-0.1-0.6-0.8 0.1-0.4 0.3M21.5 59.3c0.3 0.5 0.6 1 0.6 1.5 0 0.7 0.6 1 1.1 1.2-0.7-0.8-1.1-3-1.7-2.7M59.9 16.9c1.7 0 3.3-0.2 5.1 0.2 4.4 1.1 8.1 3.3 10.6 6.4l7 11.2c0.3 2.8 0.9 5.9 0.8 9.3 0.7 0 0.6-1 1.4-1.2-0.8 2-1.2 4.5-1.4 7.4-0.5-1.6 0-4 0.1-5.3-0.7 1.1-1.1 0.3-1.1-0.2 0.1-0.8-0.3-0.7-0.6-1-1.1-1-1.8-2.1-2.6-3.8 0.5-1.3 0.6-3.2-1-4.2-0.5-0.3-1.1-0.8-1.4-1.6-0.4-1.1-1.1-2.4-0.9-4.1 0.1-0.5-1.5 1.1-2.4 0.4-3.9-2.7-7.8-5.8-12.5-8.4-2.5 0-4.3-0.9-5.2-2-0.8-1-0.2-2.3 1-2.4 0.7 0 1.5-0.2 2.1 0.2 0.1-0.4 0.5-0.9 1-0.9M50 14.6l0.2 0.1c1 0.2 1.5 1.6 2.6 1.1 0 0.7 0.1 1.4-0.1 1.9-0.3 0.8-1.2 0.8-1.9 0.8-6.7-0.4-10.6 2.4-14.7 4.8-1.1 0.7-2.3 1.2-3.2 2.1-4.3 4-9 7.7-10.1 15.1l-0.9 8.2c-0.1 0.9-1.1 1.8-0.9 2.9l0.7 4.9c-0.7-0.7-1.1 0.2-0.9 0.6 0.1 0.3 0.5 1.3 1.1 0.4 0.8 1.5 1.6 4.4 2.7 5.7 3.4 4 7.8 7.6 11.4 11.2 0.9-0.2 1.6-0.2 1.8-0.8 0.3 0.6-0.3 1.2-0.8 1.3 1.6 1 3.4 1.9 5.8 2.1 3.1 0.2 6 0.7 8.7 1.4 1.4-0.4 2.8-0.6 4.3-0.7 0.5 0 0.8-0.8 1.4-1l0.1-1c0.6 0.9 0.5-0.3 0.1-0.9 0.7 0.6 0.9 1.1 1.2 1.5 0-0.3 0.8-1.4 0.8-0.1l0.2-1.3c0.3-0.2 0.4 1.1 0.7 0.2 0.3-0.9 0.9-0.2 1.5-0.5-0.2 0.4-0.1 1.2 0.6 0.7l0.8-0.7c0.5 1.2 1.3 0.7 1.7 0.5 4.4-2.8 8.8-6.1 13-9.4l-0.1 1.3 0.5-1.6c0.5 0.5 0.9 0.1 1.1-0.2 0.6-1 1.4-2 2.7-2.9-1.6 4.3-3.5 7.7-5.9 10.5l-1 1.2c0 0.7-0.2 1.6-1 1.7-0.4 0.1-1.2-0.2-1.8 0.4-0.3 0.4 0.7 1.2-0.1 0.6-0.7-0.5-1.4 0-2.2 0.2-0.6 0.2 0.4 0.8 0.6 1.2 0.2 0.4 0.4 0.8 0.3 1.3l-1.1-1.2c-1.3 0.7-2.1 2-3.2 3-0.5 0.4-0.3 1.1-0.3 1.7-0.7 0-1.5-0.2-1.9 0.2-0.3 0.4-0.2 1-0.2 1.6-1-0.1-1.1-1.6-2-1.3-0.9 0.2-1.9 0.3-2.7 0.8 0.6 1.2-1 0.5-0.8 0.7-1.5-0.9-2.8-1.6-4.4-1-3.4-1.1-7.6-0.6-10.7-0.2 0-0.5 0.1-1-0.1-1.1-0.2 0.5-0.8 0.3-0.7 0.3-1.9-1.3-3.8-2.1-5.8-3.2-1.8 0.2-3.5-0.7-4-1.2-1.4-1.3-3-0.6-4.3-0.9-2.8-0.7-3.8-3.6-4.1-5.6-0.2-1-1-1.4-1.3-1.3-1.3-4.2-3.3-8-4.9-11.9-0.4-1-0.3-2-0.3-3.1 0.5 0.2 1 0.1 0.9-0.6-0.5-3.3-1.7-5.8-3-8.2 0.7-3.4 0.8-7.4 2.4-10.4 1.4-2.7 4-4.1 5.8-6.4 0.6-0.8 0.6-1.9 1.2-2.6 2-2 4-4.1 6.2-5.9 1-0.8 2.2 0 3.7-0.3 0.5-1.8 2.5-3.4 4.4-2.9 0.8 0.2 2.4-1.9 2.9-2.1 0.8-0.3 0.4 0.8 0.4 1.5 1.9-1.5 4.5-2.3 6.9-3.2" fill="#21272d" fill-rule="nonzero" stroke="none" stroke-width="1" stroke-linecap="butt" stroke-linejoin="miter" stroke-miterlimit="10" stroke-dasharray="" stroke-dashoffset="0" font-family="none" font-weight="none" font-size="none" text-anchor="none" style="mix-blend-mode: normal" data-fill-palette-color="tertiary"></path></g><g transform="matrix(1,0,0,1,64,106.02930085563048)"><svg viewBox="0 0 192 147.94139828873904" height="147.94139828873904" width="192"><g><svg viewBox="0 0 192 147.94139828873904" height="147.94139828873904" width="192"><g><svg viewBox="0 0 192 147.94139828873904" height="147.94139828873904" width="192"><g transform="matrix(1,0,0,1,0,105.44786724906795)"><svg viewBox="0 0 192 42.493531039671076" height="42.493531039671076" width="192"><g id="textblocktransform"><svg viewBox="0 0 192 42.493531039671076" height="42.493531039671076" width="192" id="textblock"><g><svg viewBox="0 0 192 42.493531039671076" height="42.493531039671076" width="192"><g transform="matrix(1,0,0,1,0,0)"><svg width="192" viewBox="0.5 -37.5 235.16932225757677 52.05" height="42.493531039671076" data-palette-color="#21272d"><g transform="matrix(1,0,0,1,0,0)"><g><svg width="10.239152257576766" viewBox="1.17 -36.36 63.510000000000005 36.86" height="5.942525389091745" data-palette-color="#21272d" id="scriptelement" x="223.3095761287884" y="-10.211432694545874"><path d="M17.72-11.01L17.72-36.36 25.32-36.36 25.32-11.01Q25.32-7.49 23.75-4.9 22.18-2.31 19.39-0.91 16.6 0.5 12.91 0.5L12.91 0.5Q9.62 0.5 6.95-0.67 4.28-1.83 2.72-4.22 1.15-6.61 1.17-10.23L1.17-10.23 8.82-10.23Q8.86-8.79 9.42-7.77 9.98-6.75 10.96-6.21 11.95-5.66 13.3-5.66L13.3-5.66Q14.72-5.66 15.7-6.28 16.69-6.89 17.21-8.08 17.72-9.27 17.72-11.01L17.72-11.01ZM47.05-28.05L37.92 0 29.69 0 42.24-36.36 52.15-36.36 64.68 0 56.44 0 47.33-28.05 47.05-28.05ZM37.41-8.29L37.41-14.29 56.87-14.29 56.87-8.29 37.41-8.29Z" opacity="1" transform="matrix(1,0,0,1,0,0)" fill="#21272d" class="undefined-123" data-fill-palette-color="primary" id="tk-123"></path></svg></g></g><path d="M221.189-7.24C221.189-11.239 224.431-14.48 228.429-14.48 232.428-14.48 235.669-11.239 235.669-7.24 235.669-3.242 232.428 0 228.429 0 224.431 0 221.189-3.242 221.189-7.24ZM228.429-0.4C232.207-0.4 235.269-3.462 235.269-7.24 235.269-11.018 232.207-14.08 228.429-14.08 224.651-14.08 221.589-11.018 221.589-7.24 221.589-3.462 224.651-0.4 228.429-0.4Z" fill="#21272d" id="scriptcircle" data-fill-palette-color="primary"></path><path d="M25.05-35.2L39.15-1.4Q39.3-0.95 40.35-0.95L40.35-0.95 40.35 0 30.2 0 30.2-0.95Q30.85-0.95 31.1-1.25 31.35-1.55 31.2-1.85L31.2-1.85 28.45-8.9 12.15-8.9 9.4-1.85 9.35-1.7Q9.35-1.4 9.63-1.18 9.9-0.95 10.35-0.95L10.35-0.95 10.35 0 0.5 0 0.5-0.95Q1.5-0.95 1.7-1.4L1.7-1.4 15.6-35.2Q15.75-35.5 15.75-35.75L15.75-35.75Q15.75-36.2 15.35-36.38 14.95-36.55 14.5-36.55L14.5-36.55 14.5-37.5 26.15-37.5 26.15-36.55Q25.7-36.55 25.3-36.38 24.9-36.2 24.9-35.75L24.9-35.75Q24.9-35.5 25.05-35.2L25.05-35.2ZM26.2-14.65L20.3-29.7 14.4-14.65 26.2-14.65ZM44.3-36Q44.3-36.25 43.92-36.4 43.55-36.55 43.15-36.55L43.15-36.55 43.15-37.5 51.95-37.5 51.95-36.55Q51.55-36.55 51.17-36.4 50.8-36.25 50.8-36L50.8-36 50.8-1.5Q50.8-1.25 51.17-1.1 51.55-0.95 51.95-0.95L51.95-0.95 51.95 0 43.15 0 43.15-0.95Q43.55-0.95 43.92-1.1 44.3-1.25 44.3-1.5L44.3-1.5 44.3-36ZM71.7-23.6Q75.25-23.6 78.05-22.08 80.84-20.55 82.42-17.78 84-15 84-11.4L84-11.4Q84-7.75 82.42-5 80.84-2.25 78.02-0.75 75.2 0.75 71.55 0.75L71.55 0.75Q67.4 0.75 64.09-2.05L64.09-2.05 64.09 13.05Q64.09 13.3 64.47 13.45 64.84 13.6 65.2 13.6L65.2 13.6 65.2 14.55 56.75 14.55 56.75 13.6Q57.1 13.6 57.47 13.45 57.85 13.3 57.85 13.05L57.85 13.05 57.85-21.5Q57.85-21.75 57.47-21.9 57.1-22.05 56.75-22.05L56.75-22.05 56.75-23 64.09-23 64.09-20.9Q67.5-23.6 71.7-23.6L71.7-23.6ZM71.05-4.6Q74-4.6 76-6.4 78-8.2 78-11.3L78-11.3Q78-14.3 76.05-16.23 74.09-18.15 71.05-18.15L71.05-18.15Q67.9-18.15 65.92-16.23 63.95-14.3 63.95-11.25L63.95-11.25Q63.95-9.55 64.87-8 65.8-6.45 67.42-5.53 69.05-4.6 71.05-4.6L71.05-4.6ZM112.84-13.45L112.84-1.5Q112.84-1.25 113.22-1.1 113.59-0.95 113.99-0.95L113.99-0.95 113.99 0 105.19 0 105.19-0.95Q105.59-0.95 105.97-1.1 106.34-1.25 106.34-1.5L106.34-1.5 106.34-11.9Q106.34-14.45 105.09-16.28 103.84-18.1 101.34-18.1L101.34-18.1Q98.79-18.1 97.09-16.4 95.39-14.7 95.39-11.5L95.39-11.5 95.39-1.5Q95.39-1.25 95.77-1.1 96.14-0.95 96.49-0.95L96.49-0.95 96.49 0 88.04 0 88.04-0.95Q88.39-0.95 88.77-1.1 89.14-1.25 89.14-1.5L89.14-1.5 89.14-36Q89.14-36.25 88.77-36.4 88.39-36.55 88.04-36.55L88.04-36.55 88.04-37.5 96.49-37.5 96.49-36.55Q96.14-36.55 95.77-36.4 95.39-36.25 95.39-36L95.39-36 95.39-20.75Q96.69-22 98.57-22.75 100.44-23.5 102.34-23.5L102.34-23.5Q105.59-23.5 107.97-22.15 110.34-20.8 111.59-18.53 112.84-16.25 112.84-13.45L112.84-13.45ZM145.64-23L145.64-22.05Q145.29-22.05 144.92-21.9 144.54-21.75 144.54-21.5L144.54-21.5 144.54-1.5Q144.54-1.25 144.92-1.1 145.29-0.95 145.64-0.95L145.64-0.95 145.64 0 138.24 0 138.24-2.75Q135.09 0.65 130.29 0.65L130.29 0.65Q126.64 0.65 123.87-0.83 121.09-2.3 119.57-5.05 118.04-7.8 118.04-11.45L118.04-11.45Q118.04-15 119.72-17.78 121.39-20.55 124.19-22.08 126.99-23.6 130.29-23.6L130.29-23.6Q135.09-23.6 138.24-19.9L138.24-19.9 138.24-23 145.64-23ZM131.04-4.65Q133.09-4.65 134.72-5.58 136.34-6.5 137.24-8.03 138.14-9.55 138.14-11.3L138.14-11.3Q138.14-14.3 136.17-16.25 134.19-18.2 131.04-18.2L131.04-18.2Q127.99-18.2 126.02-16.3 124.04-14.4 124.04-11.45L124.04-11.45Q124.04-8.35 126.07-6.5 128.09-4.65 131.04-4.65L131.04-4.65ZM187.24-37.5L187.24-36.55 186.64-36.55Q185.84-36.55 185.69-36.35L185.69-36.35 171.79-18.85 184.94-1.2Q185.14-0.95 185.76-0.95 186.39-0.95 186.44-0.95L186.44-0.95 186.44 0 175.84 0 175.84-0.95Q176.44-0.95 176.44-1.2L176.44-1.2Q176.44-1.3 176.24-1.6L176.24-1.6 167.44-13.1 158.59-1.6Q158.49-1.4 158.49-1.35L158.49-1.35Q158.49-1.2 158.76-1.07 159.04-0.95 159.49-0.95L159.49-0.95 159.49 0 148.44 0 148.44-0.95 148.79-0.95Q149.69-0.95 149.94-1.2L149.94-1.2 162.94-18.45 149.94-36.3Q149.74-36.55 149.11-36.55 148.49-36.55 148.44-36.55L148.44-36.55 148.44-37.5 158.14-37.5 158.14-36.55Q157.54-36.55 157.54-36.35L157.54-36.35Q157.54-36.3 157.64-36.15 157.74-36 157.79-35.95L157.79-35.95 167.49-23.65 177.04-35.9Q177.14-36.1 177.14-36.15L177.14-36.15Q177.14-36.55 176.19-36.55L176.19-36.55 176.19-37.5 187.24-37.5ZM210.94-21.4Q212.59-20.9 214.26-19.48 215.94-18.05 217.06-15.85 218.19-13.65 218.19-10.95L218.19-10.95Q218.19-8.05 216.79-5.55 215.39-3.05 212.64-1.53 209.89 0 206.09 0L206.09 0 190.24 0 190.24-0.95Q190.59-0.95 190.96-1.1 191.34-1.25 191.34-1.5L191.34-1.5 191.34-36Q191.34-36.25 190.96-36.4 190.59-36.55 190.24-36.55L190.24-36.55 190.24-37.5 201.79-37.5Q205.14-37.5 207.71-36.23 210.29-34.95 211.71-32.68 213.14-30.4 213.14-27.5L213.14-27.5Q213.14-23.75 210.94-21.4L210.94-21.4ZM200.99-31.6L197.84-31.6 197.84-22.75 200.99-22.75Q204.09-22.75 205.26-23.98 206.44-25.2 206.44-27.4L206.44-27.4Q206.44-29.15 204.91-30.38 203.39-31.6 200.99-31.6L200.99-31.6ZM197.84-5.9L204.64-5.9Q208.44-5.9 210.06-7.45 211.69-9 211.69-11.15L211.69-11.15Q211.69-13.4 210.29-15.13 208.89-16.85 205.49-16.85L205.49-16.85 197.84-16.85 197.84-5.9Z" opacity="1" transform="matrix(1,0,0,1,0,0)" fill="#21272d" class="wordmark-text-0" data-fill-palette-color="primary" id="text-0"></path></svg></g></svg></g></svg></g></svg></g><g transform="matrix(1,0,0,1,46.376479387182506,0)"><svg viewBox="0 0 99.24704122563499 99.24704122563499" height="99.24704122563499" width="99.24704122563499"><g><svg xmlns="http://www.w3.org/2000/svg" xmlns:xlink="http://www.w3.org/1999/xlink" xml:space="preserve" version="1.1" style="shape-rendering:geometricPrecision;text-rendering:geometricPrecision;image-rendering:optimizeQuality;" viewBox="5 5 990 990" x="0" y="0" fill-rule="evenodd" clip-rule="evenodd" height="99.24704122563499" width="99.24704122563499" class="icon-icon-0" data-fill-palette-color="accent" id="icon-0"><g fill="#ea5141" data-fill-palette-color="accent"><path class="" d="M500 5C773 5 995 227 995 500S773 995 500 995 5 773 5 500 227 5 500 5M802 696C813 683 833 681 846 692S860 723 849 736C710 899 639 754 596 618 400 935 131 769 144 484 156 218 466-1 611 459 648 381 680 301 713 221 719 206 737 198 753 205 769 211 776 229 770 245 728 346 688 448 637 545 666 639 694 822 802 696M571 538C444 112 217 237 205 487 193 746 409 839 571 538" fill="#ea5141" data-fill-palette-color="accent"></path></g></svg></g></svg></g><g></g></svg></g></svg></g></svg></g></svg></g><defs></defs></svg><rect width="320" height="360" fill="none" stroke="none" visibility="hidden"></rect></g></svg></g></svg>