<?xml version="1.0"?><svg version="1.2" baseProfile="tiny-ps" viewBox="0 0 300 300" xmlns="http://www.w3.org/2000/svg" xmlns:xlink="http://www.w3.org/1999/xlink"><title>The Puzzles</title><g><g fill="#d7d7d7" transform="matrix(.1 0 0 -.1 0 300)"><path d="M0 1500V0h3000v3000H0V1500z"/></g><g fill="#d0b9c5" transform="matrix(.1 0 0 -.1 0 300)"><path d="M0 1500V0h3000v3000H0V1500zm1800 1402c126-30 202-57 335-121l120-58 102-77 102-78 85-89 85-89 61-93c34-50 84-137 110-192l49-100 26-90c14-49 33-130 43-180l16-90v-330l-22-102c-43-200-125-386-238-544l-57-78-101-103-102-103-82-58c-157-112-347-195-546-238l-91-20-126-6-126-6-99 12c-237 29-435 103-639 239l-90 60-94 88-95 89-78 105-79 105-49 100c-55 111-100 243-127 367l-18 83v380l18 85c10 46 32 127 49 180l30 95 54 104c71 135 121 204 239 328l97 103 86 65 87 66 115 58c141 72 226 103 356 130 143 30 143 30 334 26l175-4 85-19zm-505-87c-108-20-247-61-320-93-347-153-631-468-745-826l-31-100-16-100-15-101 5-140 6-140 15-81c23-115 49-192 110-319l53-110 63-85 63-85 91-89 91-89 115-76 115-77 88-37 88-38 127-29 127-30 100-6 100-6 110 11 110 12 95 25c217 57 384 150 572 320 197 176 353 456 404 721l17 88v300l-16 90c-9 50-26 124-37 165l-21 75-48 96c-64 128-104 188-194 295-194 231-467 395-749 449l-83 16-155 4-155 5-80-15zm422-90c167-27 324-90 478-193l100-66 90-91 91-90 56-85c111-169 171-320 203-510l18-105-6-135-6-135-21-85c-11-47-23-92-26-100l-5-15-11 18-10 19-62 29-61 29 28-5c15-3 38-8 52-11l25-6 15 12 15 12v46l-66 7-66 8-33-16-32-15-5-26-5-25 11-23 11-23 60-29 60-29-13-5-14-4-39 17-39 18-15-19c-30-39-12-61 58-70l45-7 31 11c17 6 31 9 31 6 0-21-79-169-130-243l-61-90-103-98-102-99-71-47c-129-86-303-157-458-188l-70-14h-170l-170 1-95 23c-115 29-195 58-299 111l-79 39-101 77-102 77-61 66c-110 120-222 311-272 466-31 96-45 166-55 291l-8 95 9 97c11 123 39 242 84 359l35 91 49 82c144 240 348 415 610 523 103 43 182 63 315 82l100 14 86-5c47-2 126-11 176-19zm-334-376c-73-49-133-94-133-100 0-5 11-27 25-47 30-45 31-50 3-79l-21-23 11-25 11-24 25-7 24-6 22 12 23 12 8-13c5-8 19-29 30-46 11-18 23-33 26-33 4 0 28 14 55 31l49 32-16 23c-29 45-13 84 34 84h25l21-25 20-25 48 31c26 17 47 35 47 40 0 15-181 274-193 276-7 1-72-38-144-88zm305-311-36-43-13 13-13 12h-26c-14 0-31-5-38-12l-12-12v-55l10-6c6-3 10-14 10-24v-17l-35-34-35-34-33 32c-38 37-57 40-82 12-23-25-47-26-68-2-21 23-21 36-1 67l16 25-5 14c-3 8-22 27-42 42l-37 28-37-42-36-42-33 12-33 13-17-11-17-11-3-25-3-25 16-17 16-16-35-42c-20-23-36-45-36-49s26-29 57-56c32-26 121-104 198-173 78-69 167-147 198-174l58-49 8 9c5 5 46 52 92 105 46 52 132 149 190 215 59 65 119 134 134 152l27 33-18 21c-26 29-235 208-243 208-4 0-23-19-43-42zM312 1368c-7-7-12-23-12-36v-23l48 3 47 3 5-145 5-145 32-3 32-3 6 23c3 13 6 79 8 148l2 125 30-3c17-1 40-3 53-3l22-1 2-47c2-25 3-86 3-135v-89l17-11 18-11 15 16 15 15 7 67 6 67 13 11c7 6 21 9 31 7l18-3 5-85 5-85 23-3 23-4 15 12 14 12v73l25-37 25-36 35-12 36-12 27 7c15 3 36 12 48 20l21 14 7 65 7 66-15 29-15 28-30 13-31 12-33-6-33-6-26-28c-14-15-30-36-35-46l-10-19-12 35c-7 20-20 43-31 53l-19 18-28-6c-16-3-36-9-45-12l-18-7v43c0 24-3 54-6 67l-6 22h-47l-10-17-9-18-19 18-20 17H324l-12-12zm646-174c12-8 22-21 22-28v-13l-39-15-40-16-5 15c-10 24-7 41 10 57 19 20 24 20 52 0zm261 184c0-2-2-78-4-170l-4-167 15-11 14-12 25 6 25 6v91l23 22c13 12 46 34 73 48l49 26 14 27 14 26-9 38-9 37-35 17-35 18h-77c-43 0-78-1-79-2zm162-79c4-7 5-18 2-25-4-11-76-64-88-64-7 0-6 85 1 103l5 15 36-8c20-5 39-14 44-21zm779-80v-160l10-20 11-19h28l8 18 8 17-3 163-3 162h-59v-161zm-678-61 3-113 27-13 27-13 45 12 46 11 14-11 13-11 17 6 16 6v239l-32-3-33-3-3-80-3-79-12-8c-7-4-22-8-34-8h-23l-1 23c-1 12 0 39 1 60 1 20-1 51-5 67l-7 30h-59l3-112zm245 105c-10-9-9-51 2-57 4-3 22-1 39 4l32 9 5-8c2-5-16-38-41-74l-46-66 4-23 3-23 78-3 79-3 14 12 14 11v23c0 12-3 25-6 28l-7 6-19-10c-10-6-28-9-39-7l-19 3 45 67 45 67v51h-88c-49 0-92-3-95-7zm220 0c-4-3-7-17-7-30v-23l13-1c6-1 27 0 46 1l33 2-8-14c-4-7-25-39-46-70l-38-57v-39l16-6c9-3 46-6 83-6h67l12 12c13 13 16 50 6 61l-7 6-19-10c-10-6-28-9-38-7l-19 3 44 69 45 69v47h-88c-49 0-92-3-95-7zm366-3-23-9-19-32c-11-17-22-47-26-65l-6-34 13-27 13-27 35-24 35-24 34 6 34 5 22 21 22 21 6 50c4 28 3 64 0 81l-6 30-31 19-31 19-25-1c-14 0-35-4-47-9zm75-92 3-14-35-16-34-17-12 14-12 15 6 24 6 25 18 4 17 4 20-12c11-7 21-19 23-27zM1008 935c-140-48-151-53-143-65l5-8 40 15 40 16 7-6 6-7-28-123c-15-67-31-127-36-133l-9-11 6-17c3-9 10-16 14-16s25 73 46 161l39 162 74 26 75 26 4 13 4 12-9-1c-4 0-65-20-135-44zm755-39-39-45-14-40-13-40 13-16 12-15h43l-23 18-22 17 25 51c24 48 60 92 69 83 2-2-11-73-30-158l-34-155 9-9 10-10 10 24c6 13 22 56 37 94 14 39 38 89 53 112l26 43h28l-6-37c-3-21-9-66-13-100l-7-63h34l-2 13c-1 6 0 32 1 57l2 45 7-30 7-30 19 3c11 1 46 4 77 5l57 3-6-48-6-48h12c6 0 11 3 11 8 0 30 23 139 42 194 12 37 19 71 15 74-11 12-27-7-38-48l-11-42-41-38c-51-46-62-48-41-7l16 31-10 10-9 9-36-47-37-47v14c0 8 7 25 16 38l16 23-10 10-10 10-15-23-16-22-3 54-3 54-21 3-21 3-25-33c-14-18-33-46-42-63-10-16-15-23-12-14 2 10 10 44 17 78l11 60-5 16c-4 8-13 15-21 15h-14l-39-44zm-613-2c-6-14-15-47-21-72-7-26-16-51-21-57l-9-10-9 15-9 14-28-13-27-13-4 11c-2 6-12 11-22 11h-19l-6-21-7-21 11-11 10-10 25 10 24 11 11-11 10-10 27 12 26 12-5-16c-4-8-9-37-13-65l-7-50h11c12 0 17 15 27 75 3 22 9 48 11 58l6 19 15-28 14-29-10-23c-6-12-11-27-11-32v-10h40l6 28c4 15 18 42 31 60 31 41 22 54-13 21l-25-23-9 14c-14 21-12 30 5 36 8 4 15 10 15 15 0 14-22 10-41-7l-18-16 8 28c5 16 16 46 25 66 20 47 20 58 1 58h-15l-10-26zm286-42-36-67-20-13-20-12v55l21 34c11 18 18 36 15 39-11 10-35-20-51-63l-17-43 11-21c7-12 14-21 17-21 17 0 48 26 74 62l30 41v-14c0-8-3-24-6-36l-6-23-49-35-49-35-20-33-20-32 2-29 3-29 18-11 18-11 39 41 38 41 18 57 18 58 18 9 18 10v-49l38 1c20 1 49-2 64-7l26-8 18 26 17 27-7 7-8 7-12-18c-16-20-26-22-26-3v13h-27c-16 0-40 5-55 11l-28 11-14-5-15-6 6 71c3 39 3 71 0 71s-22-30-41-68zm-21-188-27-55-24-11c-30-14-38-6-29 29l7 28 46 44 46 44 4-12c2-6-8-37-23-67z"/></g><g fill="#49bbd3" transform="matrix(.1 0 0 -.1 0 300)"><path d="M0 1500V0h3000v3000H0V1500zm1795 1405c118-26 225-65 350-125l120-59 80-61c95-73 204-175 274-260 65-78 181-273 219-370 39-98 78-260 93-384l12-99-6-121-5-121-22-105-21-104-36-96c-46-124-79-187-152-297l-61-91-96-101-97-102-86-65-86-64-106-55c-163-84-308-130-488-156l-84-12-151 6-151 6-75 16c-41 9-116 30-166 46l-90 29-96 49c-385 198-649 521-754 921l-25 95-15 125-15 125 6 90c4 50 15 136 26 193 53 278 154 480 350 701l91 103 99 74c113 84 186 126 314 183l90 40 100 26c55 14 127 30 160 35l60 9 185-4 185-4 70-16zm-410-85-90-7-108-27c-248-60-441-169-623-350l-90-91-77-115c-92-140-128-215-171-368l-34-117-11-115-12-115 11-117c18-205 54-337 139-507l50-98 59-79c33-43 102-120 154-170l93-91 90-60c157-105 254-148 430-189l120-29h370l70 14c272 54 520 192 715 397l75 79 56 85c103 156 170 309 205 470l15 65 6 146 6 145-12 85c-29 201-71 332-152 475-64 112-113 177-214 283-155 162-318 267-532 340l-91 31-99 14c-137 20-243 25-348 16zm282-85 118-16 102-34c120-40 198-78 311-151l83-54 88-85 89-86 62-87 62-87 43-90c57-116 89-218 110-344l17-101-4-143-5-142-28-115-29-115-4 22c-4 28-21 41-95 78-33 17-61 35-61 40l-1 10 23 3 22 3 37-22 36-22 18 22c11 13 17 26 14 31-2 4-30 10-61 13l-57 6-34-14-33-14-6-16-7-16 12-25 11-25 65-30c36-17 67-35 70-39l5-9-20-6-21-7-41 21-42 20-13-11c-7-6-13-17-13-24v-14l25-10 25-10 48 6c26 4 57 13 70 20 12 8 22 12 22 10s-15-40-34-84l-34-80-64-99c-175-267-435-452-743-530l-100-25-165-5-165-5-105 22c-206 42-349 105-510 226l-95 71-71 74c-82 86-133 159-202 290l-50 94-30 95c-17 52-36 131-43 175l-12 80v125l1 125 11 70c27 162 109 369 199 502 47 69 159 194 226 252 157 136 384 242 586 275 183 30 230 31 387 11zm-277-385c-74-49-136-93-137-97-2-5 10-28 27-53l29-44-19-21-20-21v-41l18-16c21-19 48-22 57-7 3 6 12 10 20 10h13l21-32c11-18 25-39 30-47l9-14 46 32 46 32v14c0 8-4 17-10 20-5 3-10 17-10 30v24l16 15c23 23 43 20 73-13l26-28 35 24c19 13 42 28 50 33l15 9-95 140c-52 77-97 141-100 141s-66-41-140-90zm300-321-35-41-32 18-31 18-21-18c-25-23-26-44-5-74l15-22-19-28c-11-15-32-38-47-52s-40-42-57-62l-29-37 21-29 21-28-7-18c-4-10-16-21-28-26l-21-8-28 15c-16 8-30 13-30 11-1-2-19-22-40-44l-38-41 126-109c69-60 130-109 135-109 4 0 46 43 92 96 147 169 343 400 346 409s-232 220-245 220c-4-1-24-19-43-41zM306 1354c-14-36 3-47 30-19l15 15h61l-4-150-3-150 14-5c8-3 22-3 32 0l19 6v290l16 6 16 6 28-16 27-16 7 6c3 3 6 15 6 25v18H312l-6-16zm294-144v-160h47l7 38c3 20 6 56 6 79v41l35 12 35 11 10-6 10-6v-168l10-6c6-3 19-4 29 0l19 6-4 77c-3 42-7 87-10 100l-5 23-22 8-22 8-42-12-43-13v128h-60v-160zm620 0v-161l16-6 17-6 16 10 16 10-3 22c-2 12 2 37 8 56l11 34 54 25 53 26 21 26 21 27v56l-26 20-27 21h-177v-160zm156 109c8-6 14-20 14-30v-18l-46-36c-26-19-51-35-55-35h-9v54c0 30 3 62 6 71l7 17 34-5c19-4 41-11 49-18zm792-106 3-158 8-8 8-8 16 7 17 6v318h-55l3-157zm-1255 46-32-9-21-28-22-27 5-49 4-50 33-29 33-29 34 5c40 7 81 31 90 53 8 23-5 29-24 12s-35-21-66-19l-18 1 6 10c3 5 21 12 40 16l34 6 16 18 16 18-3 33-3 32-25 18c-34 24-59 29-97 18zm57-53 23-25-6-15-6-15-38-16-38-16-12 17c-7 10-13 30-13 44v26l12 12c7 7 22 12 33 12h22l23-24zm519 57c-3-23 3-170 7-186 3-9 14-21 24-27l18-10 46 16 47 16 12-16 13-17 14 6 15 5-1 108v107h-49l-3-82-3-82-37-10-36-11-8 8c-4 4-8 45-10 92l-3 85-22 3-23 3-1-8zm244 0-13-5v-40l18 8c9 4 34 9 55 12l37 4v-8c0-5-25-46-56-91l-56-82 7-10 6-11 82 6 82 7 7 11 7 11-7 7-7 7-42-12-42-11-7 7-7 7 45 68c25 37 50 77 56 88l11 21-6 7c-7 7-152 7-170-1zm210-9-6-15 11-11 10-10 20 11c23 12 72 15 72 4 0-4-25-45-56-91l-56-84 13-8c14-9 125-12 152-4l17 5v41l-17-7c-28-11-83-18-83-11 0 3 25 44 56 90l56 85-7 10-6 11h-170l-6-16zm369 1-33-14-15-37-16-37 6-33c4-17 15-43 26-57l20-25 29-7 29-6 38 18c20 10 42 26 48 35l10 17-6 6-6 7-29-22-29-21-17 7c-27 10-20 23 18 30 20 3 43 13 50 21l15 14v66l-23 21-23 22-29 5-30 5-33-15zm68-49 23-25-6-16c-4-8-23-23-43-32l-36-18-14 20c-17 22-18 49-4 76l11 19h46l23-24zM993 929l-123-40v-21l18 7c49 20 74 27 78 22 5-5-42-224-61-284l-7-23h20l39 161 38 161 73 23c41 13 76 26 80 29 13 14-41 1-155-35zm773-40-45-50-7-35c-3-18-4-41 0-49l5-15h43l-22 18-22 18 25 50c25 49 63 92 72 82 3-3-4-48-15-99-12-52-23-105-25-119s-7-42-11-62l-7-38h9c5 0 21 35 37 78 30 86 84 183 106 190l14 5-7-69c-4-38-10-86-13-108l-6-39 14 5c8 3 13 10 12 17-2 6 2 45 8 87l10 77-5 23-6 24h-13c-18 0-61-47-85-95-26-49-27-38-6 54l16 71-6 15c-9 24-22 18-70-36zm-627-41c-12-40-28-80-35-88l-14-14v34h-10c-6 0-22-7-35-16l-25-16v33l-17-3-18-3-3-19-4-18 10-10 10-10 22 12 23 12 8-13 8-13 26 12 26 12-6-38c-4-20-9-44-11-54l-5-16 11-7c5-3 10-4 10 0 0 25 45 204 60 237 18 41 18 58 0 58h-9l-22-72zm301 12c-31-62-62-100-80-100h-10v19c0 10 11 39 25 65l24 46h-9c-6 0-19-15-30-32l-20-33v-74l10-6 11-7 24 16 25 16 31 53c17 28 28 43 25 32s-8-36-11-55l-6-36-45-28-45-28-24-37-25-36v-54l20-11 19-10 35 30 35 31 16 52c20 59 41 97 55 97h10v-50h10c6 0 19 6 30 13l21 12 8-14 9-14 10 7 10 6 5-12 4-13 27 24c14 14 26 29 26 34v10l-25-23-25-23v35l-15-6-15-5v20l-20-11-20-11v31l-17 1c-10 1-26 0-36 0l-17-2 6 70 7 71h-6c-4 0-20-27-37-60zm-15-175c-30-80-84-128-99-89l-6 15 20 39 20 39 37 25c20 14 39 23 41 21 3-3-3-25-13-50zm714 188c-6-15-13-40-16-55l-5-28h-11c-6 0-28-17-49-37l-38-37v17c0 10 7 29 16 42l16 25h-27l-30-43-30-42-3 17-3 17 17 25 16 26h-31l-11-19c-5-11-10-31-10-45v-26h19c11 0 23 5 26 10l7 11 11-10 12-9 35 3 35 3-3 20-3 20 10 6 10 6-4-75-5-75h17l6 58c3 31 16 92 30 135l25 77-9 6-9 5-11-28zm-985-98-6-15 12-31 13-30-12-26c-13-29-9-38 13-30l15 6 7 28c4 15 18 41 31 57l24 29-6 6-7 6-24-30-24-30-10 15c-5 8-10 23-10 32v17l18 4 17 5-23 1-23 1-5-15z"/></g><g fill="#938ba4" transform="matrix(.1 0 0 -.1 0 300)"><path d="M0 1500V0h3000v3000H0V1500zm1795 1405c118-26 225-65 350-125l120-59 80-61c95-73 204-175 274-260 65-78 181-273 219-370 39-98 78-260 93-384l12-99-6-121-5-121-22-105-21-104-36-96c-46-124-79-187-152-297l-61-91-96-101-97-102-86-65-86-64-106-55c-163-84-308-130-488-156l-84-12-151 6-151 6-75 16c-41 9-116 30-166 46l-90 29-96 49c-385 198-649 521-754 921l-25 95-15 125-15 125 6 90c4 50 15 136 26 193 53 278 154 480 350 701l91 103 99 74c113 84 186 126 314 183l90 40 100 26c55 14 127 30 160 35l60 9 185-4 185-4 70-16zm-410-85-90-7-108-27c-248-60-441-169-623-350l-90-91-77-115c-92-140-128-215-171-368l-34-117-11-115-12-115 11-117c18-205 54-337 139-507l50-98 59-79c33-43 102-120 154-170l93-91 90-60c157-105 254-148 430-189l120-29h370l70 14c272 54 520 192 715 397l75 79 56 85c103 156 170 309 205 470l15 65 6 146 6 145-12 85c-29 201-71 332-152 475-64 112-113 177-214 283-155 162-318 267-532 340l-91 31-99 14c-137 20-243 25-348 16zm282-85 118-16 102-34c120-40 198-78 311-151l83-54 88-85 89-86 62-87 62-87 43-90c57-116 89-218 110-344l17-101-4-143-5-142-28-115-29-115-4 22c-4 28-21 41-95 78-33 17-61 35-61 40l-1 10 23 3 22 3 37-22 36-22 18 22c11 13 17 26 14 31-2 4-30 10-61 13l-57 6-34-14-33-14-6-16-7-16 12-25 11-25 65-30c36-17 67-35 70-39l5-9-20-6-21-7-41 21-42 20-13-11c-7-6-13-17-13-24v-14l25-10 25-10 48 6c26 4 57 13 70 20 12 8 22 12 22 10s-15-40-34-84l-34-80-64-99c-175-267-435-452-743-530l-100-25-165-5-165-5-105 22c-206 42-349 105-510 226l-95 71-71 74c-82 86-133 159-202 290l-50 94-30 95c-17 52-36 131-43 175l-12 80v125l1 125 11 70c27 162 109 369 199 502 47 69 159 194 226 252 157 136 384 242 586 275 183 30 230 31 387 11zm23-706-35-41-32 18-31 18-21-18c-25-23-26-44-5-74l16-23-13-17c-7-9-23-28-36-43l-23-25 40-39 39-38 26 11c14 7 32 12 40 12h15l17-26 17-26-13-19c-14-24-11-29 38-68l39-31 103 121c57 66 105 124 107 128 3 10-232 221-245 221-4-1-24-19-43-41zM306 1354c-14-36 3-47 30-19l15 15h61l-4-150-3-150 14-5c8-3 22-3 32 0l19 6v290l16 6 16 6 28-16 27-16 7 6c3 3 6 15 6 25v18H312l-6-16zm294-144v-160h47l7 38c3 20 6 56 6 79v41l35 12 35 11 10-6 10-6v-168l10-6c6-3 19-4 29 0l19 6-4 77c-3 42-7 87-10 100l-5 23-22 8-22 8-42-12-43-13v128h-60v-160zm620 0v-161l16-6 17-6 16 10 16 10-3 22c-2 12 2 37 8 56l11 34 54 25 53 26 21 26 21 27v56l-26 20-27 21h-177v-160zm156 109c8-6 14-20 14-30v-18l-46-36c-26-19-51-35-55-35h-9v54c0 30 3 62 6 71l7 17 34-5c19-4 41-11 49-18zm792-106 3-158 8-8 8-8 16 7 17 6v318h-55l3-157zm-1255 46-32-9-21-28-22-27 5-49 4-50 33-29 33-29 34 5c40 7 81 31 90 53 8 23-5 29-24 12s-35-21-66-19l-18 1 6 10c3 5 21 12 40 16l34 6 16 18 16 18-3 33-3 32-25 18c-34 24-59 29-97 18zm57-53 23-25-6-15-6-15-38-16-38-16-12 17c-7 10-13 30-13 44v26l12 12c7 7 22 12 33 12h22l23-24zm519 57c-3-23 3-170 7-186 3-9 14-21 24-27l18-10 46 16 47 16 12-16 13-17 14 6 15 5-1 108v107h-49l-3-82-3-82-37-10-36-11-8 8c-4 4-8 45-10 92l-3 85-22 3-23 3-1-8zm244 0-13-5v-40l18 8c9 4 34 9 55 12l37 4v-8c0-5-25-46-56-91l-56-82 7-10 6-11 82 6 82 7 7 11 7 11-7 7-7 7-42-12-42-11-7 7-7 7 45 68c25 37 50 77 56 88l11 21-6 7c-7 7-152 7-170-1zm210-9-6-15 11-11 10-10 20 11c23 12 72 15 72 4 0-4-25-45-56-91l-56-84 13-8c14-9 125-12 152-4l17 5v41l-17-7c-28-11-83-18-83-11 0 3 25 44 56 90l56 85-7 10-6 11h-170l-6-16zm369 1-33-14-15-37-16-37 6-33c4-17 15-43 26-57l20-25 29-7 29-6 38 18c20 10 42 26 48 35l10 17-6 6-6 7-29-22-29-21-17 7c-27 10-20 23 18 30 20 3 43 13 50 21l15 14v66l-23 21-23 22-29 5-30 5-33-15zm68-49 23-25-6-16c-4-8-23-23-43-32l-36-18-14 20c-17 22-18 49-4 76l11 19h46l23-24zM993 929l-123-40v-21l18 7c49 20 74 27 78 22 5-5-42-224-61-284l-7-23h20l39 161 38 161 73 23c41 13 76 26 80 29 13 14-41 1-155-35zm773-40-45-50-7-35c-3-18-4-41 0-49l5-15h43l-22 18-22 18 25 50c25 49 63 92 72 82 3-3-4-48-15-99-12-52-23-105-25-119s-7-42-11-62l-7-38h9c5 0 21 35 37 78 30 86 84 183 106 190l14 5-7-69c-4-38-10-86-13-108l-6-39 14 5c8 3 13 10 12 17-2 6 2 45 8 87l10 77-5 23-6 24h-13c-18 0-61-47-85-95-26-49-27-38-6 54l16 71-6 15c-9 24-22 18-70-36zm-627-41c-12-40-28-80-35-88l-14-14v34h-10c-6 0-22-7-35-16l-25-16v33l-17-3-18-3-3-19-4-18 10-10 10-10 22 12 23 12 8-13 8-13 26 12 26 12-6-38c-4-20-9-44-11-54l-5-16 11-7c5-3 10-4 10 0 0 25 45 204 60 237 18 41 18 58 0 58h-9l-22-72zm301 12c-31-62-62-100-80-100h-10v19c0 10 11 39 25 65l24 46h-9c-6 0-19-15-30-32l-20-33v-74l10-6 11-7 24 16 25 16 31 53c17 28 28 43 25 32s-8-36-11-55l-6-36-45-28-45-28-24-37-25-36v-54l20-11 19-10 35 30 35 31 16 52c20 59 41 97 55 97h10v-50h10c6 0 19 6 30 13l21 12 8-14 9-14 10 7 10 6 5-12 4-13 27 24c14 14 26 29 26 34v10l-25-23-25-23v35l-15-6-15-5v20l-20-11-20-11v31l-17 1c-10 1-26 0-36 0l-17-2 6 70 7 71h-6c-4 0-20-27-37-60zm-15-175c-30-80-84-128-99-89l-6 15 20 39 20 39 37 25c20 14 39 23 41 21 3-3-3-25-13-50zm714 188c-6-15-13-40-16-55l-5-28h-11c-6 0-28-17-49-37l-38-37v17c0 10 7 29 16 42l16 25h-27l-30-43-30-42-3 17-3 17 17 25 16 26h-31l-11-19c-5-11-10-31-10-45v-26h19c11 0 23 5 26 10l7 11 11-10 12-9 35 3 35 3-3 20-3 20 10 6 10 6-4-75-5-75h17l6 58c3 31 16 92 30 135l25 77-9 6-9 5-11-28zm-985-98-6-15 12-31 13-30-12-26c-13-29-9-38 13-30l15 6 7 28c4 15 18 41 31 57l24 29-6 6-7 6-24-30-24-30-10 15c-5 8-10 23-10 32v17l18 4 17 5-23 1-23 1-5-15z"/></g><g fill="#4e5158" transform="matrix(.1 0 0 -.1 0 300)"><path d="M0 1500V0h3000v3000H0V1500zm1750 1414 95-16 105-34c58-19 150-57 205-84l100-49 105-79 105-79 80-84 81-84 56-85c159-239 231-444 256-727l9-102-8-103c-28-331-143-600-362-848l-84-95-70-57c-243-196-515-304-823-327l-105-8-100 8c-257 20-485 101-710 252l-90 61-110 110-111 111-63 93C176 888 99 1104 70 1365l-13 110 7 99c17 264 99 507 245 726l56 84 120 122 120 121 92 61c206 135 432 217 668 241l90 10 100-5c55-2 143-11 195-20zm-520-123-135-29-85-35c-298-122-518-322-685-622-39-70-100-241-121-340l-15-70-6-131-6-131 13-99c6-54 23-142 36-194l25-95 64-130 64-130 65-87 66-86 83-78 82-77 97-64c53-35 136-82 184-105l87-40 116-29c211-52 332-60 521-34 257 35 475 132 681 303l97 80 55 69c153 190 264 427 298 633l13 75-1 145v145l-16 87c-9 48-26 125-38 170l-22 81-54 106c-63 123-136 227-231 331l-67 74-95 71-96 71-91 47c-104 53-267 111-363 127-36 6-137 13-225 16l-160 4-135-29zm459-57 106-15 105-35 105-35 84-45c269-143 466-363 580-649l40-100 15-77c9-42 21-119 28-171l12-95-12-114-12-113-25-99c-74-287-229-518-475-702l-73-55-96-48c-119-60-229-97-346-118l-90-15-135-1-135-1-87 17c-116 23-223 59-333 112l-90 44-107 80-106 81-62 67c-200 221-310 490-327 798l-6 110 17 114 17 115 31 95 30 96 50 97c61 120 127 208 237 319l86 86 75 50c94 63 213 123 311 156 65 23 111 33 279 60 14 2 65 5 114 6l88 1 107-16zM313 1355c-3-9-3-19 1-22l6-7 12 12 12 12h66v-301l28 3 27 3 3 148 3 147h25c14 0 34-4 44-10l18-10 5 14c3 8 3 17 0 20-4 3-60 6-125 6H319l-6-15zm297 13c0-2-2-74-4-161l-5-158 22 3 22 3 3 76 3 76 25 12c14 6 36 11 49 11h25l6-26 7-26-7-65-7-64 27 3 27 3-2 85-2 85-19 20-20 19-37-11c-21-5-46-14-56-18l-19-8 4 72 3 71h-22c-13 0-23-1-23-2zm615-158v-160h55v99l16 16c9 8 30 23 47 31 18 9 47 27 65 41l32 24v80l-35 15-34 14h-146v-160zm156 121 23-18-12-29-12-29-50-37-50-37v169h78l23-19zm789-118 5-158h36l2 158 2 157h-50l5-157zm-1260 40c-8-3-25-15-37-26l-22-20-6-27-6-28 15-35 14-35 26-17 26-18 37 6 36 6 23 22c30 28 24 36-10 14l-25-17-22 4c-12 2-24 8-26 15l-4 12 37 10c20 5 45 18 55 27l19 17v39l-29 29-29 29-29-1c-15 0-35-3-43-6zm43-24c28-15 37-28 37-56v-22l-42-19-43-19-12 15-13 16v65l16 15c18 19 28 20 57 5zm537-53v-84l19-23 19-24 53 18 53 17 9-15c4-8 14-15 22-15h14l3 105 3 106-24-3-24-3 2-71 2-71-14-12c-9-6-31-15-51-18l-35-5-7 26c-3 15-4 56-2 91l4 65h-46v-84zm240 63v-21l14 11 15 12 40-3 41-3-55-82c-30-45-55-87-55-93v-10h161l6 15c3 9 3 19-1 22l-6 7-12-12-12-12h-38c-21 0-38 2-38 5s23 39 50 80c28 42 53 82 56 90l6 15h-172v-21zm220 8v-14l56 5 57 5-8-14c-5-8-30-46-57-86-26-40-48-77-48-83v-11l82 3 83 3 3 19 4 19-18-8c-25-11-94-19-94-11 0 4 23 40 50 81 28 42 53 82 56 90l6 15h-172v-13zm360 0-25-12-17-36-18-35 10-33c5-19 17-42 26-52l17-19 32-6 33-6 29 15c29 15 62 47 49 47-4 0-18-7-31-16l-24-16-22 4c-12 2-24 8-26 15l-4 12 40 11c63 17 78 38 65 88l-7 23-28 14c-34 18-66 19-99 2zm60-22 29-15 6-20 6-20-6-10c-4-6-25-20-47-31l-42-21-13 18-13 18v65l16 15c19 20 28 20 64 1zm142 20-23-17 3-26 3-26 70-35 70-36v-30l-21-3-22-3-37 16-38 15-13-11c-20-16-9-26 35-34l39-6 36 7 37 6 16 24 16 25-19 20c-10 12-47 34-81 49l-63 29v31h61l31-16 30-16 16 16c22 22 14 26-59 32l-64 6-23-17zM1090 955l-35-13 15-1c8 0 29 6 45 14 39 17 21 18-25 0zm688-52c-27-30-62-92-55-99 2-2 12 14 22 35 10 22 28 50 41 61l23 22 10-7 11-6v10c0 20-26 11-52-16zm-802 2c4-8 8-15 10-15s4 7 4 15-4 15-10 15h-9l5-15zm-73-10c-18-8-33-16-33-19s15 1 33 8c17 7 39 16 47 19l15 5-15 1c-8 0-30-6-47-14zm248-26c-16-54-8-60 13-9 18 47 19 50 8 50-5 0-14-18-21-41zm298-1c-12-24-32-58-46-75l-24-33h-29v55l20 33c11 17 17 32 15 32-3 0-14-15-25-32l-20-33v-65h38l29 33c16 18 35 48 43 67l14 33 7-19 8-19v33c1 17-1 32-4 32-2 0-14-19-26-42zm696 11c-2-8-14-41-25-73-11-33-28-69-38-80l-17-21 18 14 17 13 1-38 1-39 9 50c6 28 19 78 30 113 12 35 18 66 15 69s-8 0-11-8zM971 864l1-19 5 13c3 7 2 16-1 19-3 4-6-2-5-13zm925 3-16-12h25c25 0 33 9 16 19-4 3-16 0-25-7zm-934-47v-25l5 13c2 6 2 18 0 25l-5 12v-25zm498-10v-31l-27-26-28-26 20 11c11 5 22 9 25 9 3-1 16 7 30 17l25 18-20-6-21-6 4 35c2 19 1 35-2 35s-6-14-6-30zm390 0c-6-11-8-20-6-20 3 0 10 9 16 20s8 20 6 20c-3 0-10-9-16-20zm71-26 1-19 5 13c3 7 2 16-1 19-3 4-6-2-5-13zm39 1c-7-9-11-18-8-20 3-3 11 1 18 10s11 18 8 20c-3 3-11-1-18-10zm44-25-29-40h-28l6-7 7-6 26 13 26 14 15 29c22 43 10 42-23-3zM951 774l1-19 5 13c3 7 2 16-1 19-3 4-6-2-5-13zm214 6-6-10 15 6c18 7 21 14 7 14-6 0-13-4-16-10zm546-1c-1-9 6-22 14-29l15-13 7 7 6 6h-12c-6 0-16 10-21 23l-9 22v-16zm-721-5c0-3 4-14 10-24l10-19 31 9 31 9-5-13-5-12 34 10 34 11v27l-16-13-16-13-12 16-13 17-23-16-23-16-9 17c-8 15-28 23-28 10zm522-6c-14-14-16-35-3-42l9-6-5 22-4 23 13-15 13-15 29-2 29-2 8-13 8-13 23 25 23 24-22-18-23-19v45l-15-12-15-12v23l-20-6-20-6v15c0 19-11 21-28 4zm554-14c-10-14-27-29-39-34l-22-9h15c20 0 44 19 59 47 16 30 7 28-13-4zm-851-14-19-21-11 5-12 4 5-25 5-25 10 18c5 11 19 29 30 42 11 12 18 22 15 22s-13-9-23-20zm605 12c0-6-7-18-16-27l-17-17-13-55c-7-30-10-52-7-49 11 11 63 150 58 155-3 2-5-1-5-7zm-879-18 1-19 5 13c3 7 2 16-1 19-3 4-6-2-5-13zm39 7c0-6 4-13 10-16l10-6-6 15c-7 18-14 21-14 7zm384-43-29-33 33 29c17 17 32 31 32 33 0 8-8 1-36-29zm-253 6 1-19 5 13c3 7 2 16-1 19-3 4-6-2-5-13zm-180-20 1-19 5 13c3 7 2 16-1 19-3 4-6-2-5-13zm480-41-11-28 15 19c8 11 15 23 15 28 0 15-7 8-19-19zm-495 0c-3-10-9-24-12-30l-6-13h10c5 0 13 12 16 26 8 30 2 44-8 17z"/></g><g fill="#080808" transform="matrix(.1 0 0 -.1 0 300)"><path d="M0 1500V0h3000v3000H0V1500zm1780 1412 105-20 90-32c50-17 131-51 180-75l90-44 95-68 95-68 85-86c109-110 157-172 235-310 72-125 103-200 139-338l25-94 17-140 17-139-12-121-12-122-24-100c-30-127-62-212-126-335l-51-98-63-83-63-84-103-100-104-101-75-49c-168-110-292-164-480-210l-105-25-111-11-112-11-125 11-125 12-99 24c-237 57-432 160-625 328l-86 76-69 86c-137 173-221 338-273 540l-28 110-12 107-13 108 6 122 6 123 26 110c35 154 60 225 116 336 65 127 136 228 239 340l85 93 96 71c210 157 419 243 679 281l95 13 135-4 135-4 105-19zm-410-98c-80-10-238-47-319-76-98-34-203-89-311-162l-75-51-91-90-90-90-77-115c-87-131-121-202-167-345l-32-100-15-115-15-115 6-111c11-210 47-348 135-530l58-119 60-80c34-44 101-119 150-166l88-86 92-61c198-133 372-195 621-223l95-10 124 11 125 11 94 24c240 61 467 195 639 376l70 74 57 86c109 166 184 344 214 509l13 75 1 146v146l-20 109c-32 181-75 294-172 452-98 161-280 344-438 440-123 74-306 144-436 167l-84 14-132 5c-73 2-149 2-168 0zm357-79 91-15 88-31c111-39 186-76 292-145l83-54 94-91 93-90 62-87 62-87 43-90c58-119 90-223 111-353l17-107-6-140-5-140-30-116-30-116-36-83-35-82-67-100c-181-272-431-450-752-535l-97-26-195-1-195-1-105 27c-187 48-317 111-466 226l-89 69-77 82-77 82-55 88c-106 171-151 287-182 465l-16 91v240l16 91c8 51 27 129 42 175l26 84 54 105c65 127 116 197 232 315l88 90 77 53c42 29 128 77 189 107l113 54 81 21c44 11 123 27 175 35l94 14 101-5c55-2 141-11 191-19zM320 1358v-13l51 4 50 3-3-146-3-146h45v293l50-5 50-5v27H320v-12zm290-127c0-77-3-147-6-156l-7-17 24 4 23 3 4 153 4 152h-42v-139zm620-16v-155h40v77l19 25c11 13 40 34 65 47s54 32 66 43l20 19v27c0 15-4 33-9 41l-9 13-43 9c-24 4-68 8-96 9h-53v-155zm135 131 35-15v-21c0-34-15-54-75-99l-55-42v89c0 49 3 92 7 95 11 11 52 8 88-7zm812 17c-9-8-9-113 0-220l6-83h27v310h-13c-8 0-17-3-20-7zM703 1247c-45-17-52-28-9-15l35 11 17-13 16-14-4-78-3-78h47l-3 86-4 86-19 14c-23 16-30 16-73 1zm197-5-35-19-11-34-11-33 9-28c6-16 21-37 35-48l26-20h31c17 0 38 5 46 10l15 11-27-7-26-6-20 20c-11 11-23 18-26 15-7-8-36 60-36 85v19l18 16 19 17h50l21-23c26-28 28-44 5-69l-16-18h9c5 0 20 7 32 16l22 15v59l-22 14c-13 8-34 17-48 21l-25 6-35-19zm594-74c4-50 9-95 12-100 3-4 19-8 37-8h31l-22 16-22 15v169h-43l7-92zm146 12v-79l-17-11-18-12 17 6 16 5 6-15c3-8 12-14 19-14h15v100l1 100h-39v-80zm90 65v-16l23 12c33 17 33 19 4 19h-27v-15zm113 3 4-13-59-87-59-88h51v9c0 6 25 46 55 90s55 85 55 91v10h-52l5-12zm107 1v-10l45 7c25 3 52 4 60 0l16-6-61-90-61-90h51v10c0 5 20 37 44 72s51 75 61 91l17 27h-172v-11zm364-5-31-15-12-25c-6-14-11-39-11-55v-31l29-29 29-29h39l38 1-33 14-33 15 6 10 7 11-18-3-19-3-13 43-14 42 16 25 16 25h56l22-20 22-21v-48l-17-10-18-10 16-1c13 0 59 34 59 45 0 2-4 15-10 30l-10 26-35 14c-42 18-43 18-81-1zm246 10c8-4 30-13 48-22l33-15 17 17 16 16h-31c-17 0-46 2-64 5l-34 5 15-6zm-55-20-16-16 3-17 3-16 65-32c36-18 73-42 82-54l18-21 7 17 6 18-10 15c-5 9-37 28-71 42-34 15-68 32-74 38l-11 11 13 16c17 20 6 19-15-1zm-1-146-6-10 10-10 9-9 36 3 36 3-39 17-40 16-6-10zm-639-18-20-9h23l22-1v10c0 6-1 10-2 9-2 0-12-4-23-9zm220 0-20-9h22c12-1 25 4 28 9l6 10-8-1c-4 0-17-4-28-9z"/></g></g></svg>